<?xml version="1.0" encoding="utf-8"?>

<svg version="1.1" id="TOK_x5F_Logo_x5F_Black_x5F_RGB" xmlns="http://www.w3.org/2000/svg" xmlns:xlink="http://www.w3.org/1999/xlink" x="0px" y="0px" viewBox="0 0 333.9 138.3" style="enable-background:new 0 0 333.9 138.3;" xml:space="preserve">

<polygon fill="#ffffff" points="256.1,24.3 256.1,50 233.5,37.2 223.2,55 245.6,67.7 223.2,80.6 233.5,98.4 256.1,85.5 256.1,111.2 &#xA;&#x9;277,111.2 277,85.5 299.6,98.4 310.1,80.6 287.5,67.7 310.1,55 299.6,37.2 277,50 277,24.3 "></polygon>
<polygon fill="#ffffff" points="56.7,24.3 56.7,56.2 23.5,56.2 23.5,76.7 56.7,76.7 56.7,111.2 78.6,111.2 78.6,76.7 111.8,76.7 &#xA;&#x9;111.8,56.2 78.6,56.2 78.6,24.3 "></polygon>
<g>
&#x9;<path fill="#ffffff" d="M167.1,22.5c-25.7,0-46.5,20.5-46.5,45.8s20.8,45.8,46.5,45.8s46.5-20.5,46.5-45.8S192.8,22.5,167.1,22.5&#xA;&#x9;&#x9; M167.1,94c-14.5,0-26.2-11.5-26.2-25.7s11.7-25.7,26.2-25.7c14.5,0,26.2,11.5,26.2,25.7S181.6,94,167.1,94"></path>
</g>
</svg>